<svg width="60" height="70" viewBox="0 0 60 70" fill="none" xmlns="http://www.w3.org/2000/svg">
<path d="M34.3413 27.0989C36.0066 27.0989 37.3186 25.6274 37.3186 23.8834C37.3186 22.085 36.0066 20.668 34.3413 20.668H20.363H19.8584V21.213V48.7896V49.3346H20.363H34.3413C36.0066 49.3346 37.3186 47.8631 37.3186 46.1192C37.3186 44.3207 36.0066 42.9037 34.3413 42.9037H25.8635V27.0989H34.3413Z" fill="#FFCF25"/>
<path d="M20.3798 70C17.0431 70 14.0009 70 11.3839 70H0V0H4.02362C8.93047 0 21.95 0 37.2921 0C51.1948 0.0327869 56.5924 8.03279 58.5551 12.8197C60.2561 16.918 60.4524 21.5082 59.1439 25.6721C57.7046 30.2623 54.924 33.1475 52.765 34.9836C54.9567 36.8197 57.7046 39.7377 59.1439 44.2951C60.4524 48.459 60.2561 53.0164 58.5878 57.1148C56.6251 61.9016 51.2275 69.9344 37.3248 69.9672C31.273 70 25.4829 70 20.3798 70ZM9.09403 62.7869C15.8001 62.7869 26.1372 62.7869 37.2594 62.7869C44.6851 62.7869 49.5919 59.9672 51.8818 54.3934C52.9286 51.8689 53.0594 49.082 52.2416 46.5246C51.0049 42.6573 48.4143 40.7541 46.6478 39.377C46.0917 38.9508 45.601 38.5574 45.1758 38.1311C43.442 36.3934 43.442 33.5738 45.1758 31.8361C45.601 31.4098 46.0917 31.0492 46.6805 30.5902C48.447 29.2459 51.064 27.2459 52.2416 23.5082C53.0594 20.9508 52.9286 18.1311 51.8818 15.5738C49.5919 10.0328 44.6851 7.21312 37.2594 7.21312C24.5343 7.21312 13.3793 7.21312 7.164 7.21312V62.7541L9.09403 62.7869Z" fill="#FFCF25"/>
</svg>
